<svg id="Layer_1" data-name="Layer 1" xmlns="http://www.w3.org/2000/svg" viewBox="0 0 99.75 100"><defs><style>.cls-1{fill:#e0e7ee;}</style></defs><title>+Rlogo</title><path class="cls-1" d="M133,88c0-9.2-5.41-14.49-10-17.33v33.79C127.66,101.12,133,95.63,133,88Z" transform="translate(-63.25 -63)"/><path class="cls-1" d="M143,88c0,13.27-9.45,21.68-16.29,26l28.7,25.44a50,50,0,0,0-19.67-71A28.82,28.82,0,0,1,143,88Z" transform="translate(-63.25 -63)"/><path class="cls-1" d="M123,124.11V162a49.91,49.91,0,0,0,26.27-14.6Z" transform="translate(-63.25 -63)"/><path class="cls-1" d="M113,63a50,50,0,0,0-49.75,45H83V88H93v20h20" transform="translate(-63.25 -63)"/><path class="cls-1" d="M113,118H93v20H83V118H63.25A50,50,0,0,0,113,163" transform="translate(-63.25 -63)"/></svg>